<svg version="1.1" id="Layer_1" xmlns="http://www.w3.org/2000/svg" x="0" y="0" viewBox="0 0 1460.922 1460.926" style="enable-background:new 0 0 1460.92224 1460.92603" xml:space="preserve"><style>.st0{fill:#fff}</style><path class="st0" d="M730.46 1434.244c-388.065 0-703.778-315.713-703.778-703.781 0-388.066 315.713-703.78 703.777-703.78 388.068 0 703.781 315.714 703.781 703.78 0 388.068-315.713 703.78-703.78 703.78zm0-1359.323c-361.468 0-655.543 294.075-655.543 655.542s294.075 655.546 655.542 655.546 655.546-294.08 655.546-655.546S1091.926 74.921 730.46 74.921z"/><path class="st0" d="m652.936 610.098-51.393-117.421-20.784 111.058h-19.2l33.547-169.881 57.83 135.168 57.831-135.168 33.546 169.88H725.11L704.1 492.678l-51.164 117.42zM806.098 603.735V528.95l-56.025-88.624h22.704l43.26 70.877 43.035-70.877h22.59l-55.911 88.624v74.784h-19.653zM148.129 888.992l39.745-225.389h133.458l-8.714 49.418h-75.582l-6.895 39.108h71.267l-8.525 48.341h-71.267l-15.61 88.522H148.13zM318.41 888.992l39.744-225.389h59.958l-39.745 225.389H318.41zM460.719 888.992 491.07 716.87h-48.802l9.392-53.267h156.966l-9.392 53.267h-48.799l-30.352 172.122H460.72z"/><g><path class="st0" d="m688.962 888.992 30.352-172.122h-48.802l9.393-53.267h156.966l-9.393 53.267H778.68l-30.352 172.122h-59.366zM829.188 888.992l39.744-225.389h62.042c24.303 0 41.033 1.155 50.201 3.464 9.161 2.309 16.737 6.184 22.718 11.625 6.752 6.158 11.392 14.009 13.926 23.553 2.533 9.547 2.787 20.069.76 31.562-3.077 17.447-9.721 31.636-19.928 42.567-10.214 10.931-23.571 18.194-40.073 21.787l43.35 90.831h-67.1l-34.441-88.218-15.556 88.218h-55.643zM905.79 770.14h11.013c12.794 0 22.536-2.26 29.238-6.774 6.699-4.514 10.899-11.598 12.598-21.244 1.991-11.291.656-19.323-4.008-24.096-4.66-4.773-13.493-7.159-26.483-7.159h-11.905L905.79 770.14zM1029.078 888.992l39.745-225.389h59.957l-39.74 225.389h-59.962zM1195.636 888.992h-55.643l39.745-225.389h62.042c24.303 0 41.143 1.232 50.53 3.696 9.388 2.462 16.972 6.673 22.77 12.622 6.82 6.879 11.428 15.476 13.826 25.786 2.398 10.315 2.484 21.787.257 34.41-2.37 13.446-6.541 25.276-12.505 35.487-5.97 10.213-13.596 18.607-22.89 25.17-7.019 4.928-14.88 8.472-23.596 10.624-8.71 2.155-22.24 3.233-40.59 3.233h-20.834l-13.112 74.361zm21.855-123.93h11.31c14.281 0 24.61-2.031 30.976-6.085 6.37-4.054 10.413-10.956 12.13-20.71 1.666-9.437.075-16.16-4.772-20.164-4.85-4.003-14.317-6.006-28.4-6.006h-11.905l-9.339 52.965z"/></g><g><path class="st0" d="M559.493 991.77c0-2.794.978-5.145 2.934-7.051 1.952-1.906 4.375-2.862 7.266-2.862 2.958 0 5.42.956 7.394 2.862 1.97 1.906 2.959 4.257 2.959 7.052 0 2.798-.996 5.164-2.984 7.105-1.991 1.938-4.446 2.908-7.37 2.908-2.854 0-5.27-.97-7.24-2.908-1.974-1.941-2.959-4.307-2.959-7.105z"/></g><g><path class="st0" d="M651.455 930.464v21.505c-2.787-2.994-5.567-5.189-8.336-6.584-2.77-1.4-5.735-2.099-8.897-2.099-5.849 0-10.581 1.935-14.203 5.796-3.619 3.865-5.432 8.904-5.432 15.117 0 5.788 1.845 10.588 5.535 14.403 3.687 3.815 8.387 5.72 14.1 5.72 3.162 0 6.128-.695 8.897-2.094 2.77-1.399 5.55-3.608 8.336-6.634v21.555c-3.23 1.513-6.441 2.648-9.635 3.4a41.94 41.94 0 0 1-9.69 1.135c-4.078 0-7.843-.467-11.294-1.406-3.451-.935-6.62-2.358-9.51-4.264-5.575-3.619-9.825-8.172-12.748-13.665-2.926-5.488-4.386-11.67-4.386-18.543 0-5.524.924-10.549 2.78-15.07 1.852-4.518 4.646-8.622 8.386-12.305 3.537-3.519 7.523-6.15 11.96-7.89 4.435-1.746 9.374-2.617 14.813-2.617 3.262 0 6.491.379 9.689 1.135 3.194.757 6.406 1.892 9.635 3.405zM739.57 963.903c0 5.196-.985 10.063-2.955 14.6-1.97 4.539-4.846 8.6-8.618 12.183-3.808 3.55-8.158 6.288-13.054 8.211a41.262 41.262 0 0 1-15.246 2.887c-5.339 0-10.445-.96-15.324-2.887-4.878-1.923-9.171-4.66-12.876-8.211-3.843-3.583-6.755-7.662-8.747-12.23-1.987-4.572-2.983-9.422-2.983-14.553 0-5.16.996-10.018 2.983-14.575 1.992-4.554 4.904-8.622 8.747-12.208 3.705-3.551 7.998-6.289 12.876-8.212s9.985-2.884 15.324-2.884c5.303 0 10.41.96 15.32 2.884 4.915 1.923 9.24 4.66 12.98 8.212 3.736 3.554 6.606 7.615 8.59 12.183 1.991 4.572 2.983 9.44 2.983 14.6zm-39.873 21.208c5.642 0 10.307-2.002 13.997-6.016 3.686-4.012 5.531-9.076 5.531-15.192 0-6.05-1.87-11.095-5.61-15.142-3.74-4.044-8.38-6.067-13.918-6.067-5.646 0-10.31 2.016-14 6.042-3.686 4.029-5.531 9.086-5.531 15.167 0 6.184 1.816 11.262 5.456 15.242 3.637 3.979 8.33 5.966 14.075 5.966zM837.938 999.86h-19.021l-4.386-31.222a172.385 172.385 0 0 1-.839-7.348 284.708 284.708 0 0 1-.689-8.829c-.478 3.059-1.413 6.874-2.805 11.442-.306.956-.528 1.663-.663 2.123l-10.146 33.835h-13.565l-10.15-33.835c-.135-.46-.338-1.167-.61-2.123-1.427-4.568-2.362-8.365-2.804-11.392a307.27 307.27 0 0 1-.714 8.112c-.271 2.68-.596 5.353-.97 8.015l-4.383 31.223h-18.921l11.526-72.21h20.142l11.27 37.24c.068.264.204.689.407 1.281 1.053 3.323 1.717 6.167 1.988 8.533.135-1.281.392-2.705.767-4.264.371-1.564.882-3.444 1.527-5.65l11.374-37.14h20.192l11.473 72.21z"/></g></svg>