<?xml version="1.0" encoding="utf-8"?>
<svg viewBox="0 0 500 500" xmlns="http://www.w3.org/2000/svg">
  <path class="st0" d="M 247.289 475.059 C 121.48 475.059 19.126 372.705 19.126 246.894 C 19.126 121.085 121.48 18.729 247.289 18.729 C 373.101 18.729 475.454 121.085 475.454 246.894 C 475.454 372.705 373.101 475.059 247.289 475.059 Z M 247.289 34.369 C 130.103 34.369 34.764 129.708 34.764 246.894 C 34.764 364.081 130.103 459.421 247.289 459.421 C 364.476 459.421 459.816 364.081 459.816 246.894 C 459.816 129.708 364.476 34.369 247.289 34.369 Z" style=""/>
  <path class="st0" d="M 222.156 207.871 L 205.494 169.804 L 198.757 205.81 L 192.532 205.81 L 203.407 150.734 L 222.156 194.556 L 240.905 150.734 L 251.78 205.81 L 245.556 205.81 L 238.744 169.804 L 222.156 207.871 Z M 271.811 205.81 L 271.811 181.563 L 253.648 152.832 L 261.009 152.832 L 275.033 175.81 L 288.985 152.832 L 296.309 152.832 L 278.182 181.563 L 278.182 205.81 L 271.811 205.81 Z M 58.499 298.289 L 71.384 225.219 L 114.652 225.219 L 111.825 241.239 L 87.321 241.239 L 85.088 253.918 L 108.192 253.918 L 105.429 269.59 L 82.323 269.59 L 77.262 298.289 L 58.499 298.289 Z M 113.703 298.289 L 126.589 225.219 L 146.027 225.219 L 133.141 298.289 L 113.703 298.289 Z M 159.839 298.289 L 169.68 242.488 L 153.858 242.488 L 156.904 225.219 L 207.791 225.219 L 204.747 242.488 L 188.926 242.488 L 179.085 298.289 L 159.841 298.289 L 159.839 298.289 Z" style=""/>
  <g transform="matrix(0.32419800758361816, 0, 0, 0.32419800758361816, 10.47511959075905, 10.078853607177734)" style="">
    <path class="st0" d="m688.962 888.992 30.352-172.122h-48.802l9.393-53.267h156.966l-9.393 53.267H778.68l-30.352 172.122h-59.366zM829.188 888.992l39.744-225.389h62.042c24.303 0 41.033 1.155 50.201 3.464 9.161 2.309 16.737 6.184 22.718 11.625 6.752 6.158 11.392 14.009 13.926 23.553 2.533 9.547 2.787 20.069.76 31.562-3.077 17.447-9.721 31.636-19.928 42.567-10.214 10.931-23.571 18.194-40.073 21.787l43.35 90.831h-67.1l-34.441-88.218-15.556 88.218h-55.643zM905.79 770.14h11.013c12.794 0 22.536-2.26 29.238-6.774 6.699-4.514 10.899-11.598 12.598-21.244 1.991-11.291.656-19.323-4.008-24.096-4.66-4.773-13.493-7.159-26.483-7.159h-11.905L905.79 770.14zM1029.078 888.992l39.745-225.389h59.957l-39.74 225.389h-59.962zM1195.636 888.992h-55.643l39.745-225.389h62.042c24.303 0 41.143 1.232 50.53 3.696 9.388 2.462 16.972 6.673 22.77 12.622 6.82 6.879 11.428 15.476 13.826 25.786 2.398 10.315 2.484 21.787.257 34.41-2.37 13.446-6.541 25.276-12.505 35.487-5.97 10.213-13.596 18.607-22.89 25.17-7.019 4.928-14.88 8.472-23.596 10.624-8.71 2.155-22.24 3.233-40.59 3.233h-20.834l-13.112 74.361zm21.855-123.93h11.31c14.281 0 24.61-2.031 30.976-6.085 6.37-4.054 10.413-10.956 12.13-20.71 1.666-9.437.075-16.16-4.772-20.164-4.85-4.003-14.317-6.006-28.4-6.006h-11.905l-9.339 52.965z" style=""/>
  </g>
  <g transform="matrix(0.32419800758361816, 0, 0, 0.32419800758361816, 10.47511959075905, 10.078853607177734)" style="">
    <path class="st0" d="M559.493 991.77c0-2.794.978-5.145 2.934-7.051 1.952-1.906 4.375-2.862 7.266-2.862 2.958 0 5.42.956 7.394 2.862 1.97 1.906 2.959 4.257 2.959 7.052 0 2.798-.996 5.164-2.984 7.105-1.991 1.938-4.446 2.908-7.37 2.908-2.854 0-5.27-.97-7.24-2.908-1.974-1.941-2.959-4.307-2.959-7.105z" style=""/>
  </g>
  <g transform="matrix(0.32419800758361816, 0, 0, 0.32419800758361816, 10.47511959075905, 10.078853607177734)" style="">
    <path class="st0" d="M651.455 930.464v21.505c-2.787-2.994-5.567-5.189-8.336-6.584-2.77-1.4-5.735-2.099-8.897-2.099-5.849 0-10.581 1.935-14.203 5.796-3.619 3.865-5.432 8.904-5.432 15.117 0 5.788 1.845 10.588 5.535 14.403 3.687 3.815 8.387 5.72 14.1 5.72 3.162 0 6.128-.695 8.897-2.094 2.77-1.399 5.55-3.608 8.336-6.634v21.555c-3.23 1.513-6.441 2.648-9.635 3.4a41.94 41.94 0 0 1-9.69 1.135c-4.078 0-7.843-.467-11.294-1.406-3.451-.935-6.62-2.358-9.51-4.264-5.575-3.619-9.825-8.172-12.748-13.665-2.926-5.488-4.386-11.67-4.386-18.543 0-5.524.924-10.549 2.78-15.07 1.852-4.518 4.646-8.622 8.386-12.305 3.537-3.519 7.523-6.15 11.96-7.89 4.435-1.746 9.374-2.617 14.813-2.617 3.262 0 6.491.379 9.689 1.135 3.194.757 6.406 1.892 9.635 3.405zM739.57 963.903c0 5.196-.985 10.063-2.955 14.6-1.97 4.539-4.846 8.6-8.618 12.183-3.808 3.55-8.158 6.288-13.054 8.211a41.262 41.262 0 0 1-15.246 2.887c-5.339 0-10.445-.96-15.324-2.887-4.878-1.923-9.171-4.66-12.876-8.211-3.843-3.583-6.755-7.662-8.747-12.23-1.987-4.572-2.983-9.422-2.983-14.553 0-5.16.996-10.018 2.983-14.575 1.992-4.554 4.904-8.622 8.747-12.208 3.705-3.551 7.998-6.289 12.876-8.212s9.985-2.884 15.324-2.884c5.303 0 10.41.96 15.32 2.884 4.915 1.923 9.24 4.66 12.98 8.212 3.736 3.554 6.606 7.615 8.59 12.183 1.991 4.572 2.983 9.44 2.983 14.6zm-39.873 21.208c5.642 0 10.307-2.002 13.997-6.016 3.686-4.012 5.531-9.076 5.531-15.192 0-6.05-1.87-11.095-5.61-15.142-3.74-4.044-8.38-6.067-13.918-6.067-5.646 0-10.31 2.016-14 6.042-3.686 4.029-5.531 9.086-5.531 15.167 0 6.184 1.816 11.262 5.456 15.242 3.637 3.979 8.33 5.966 14.075 5.966zM837.938 999.86h-19.021l-4.386-31.222a172.385 172.385 0 0 1-.839-7.348 284.708 284.708 0 0 1-.689-8.829c-.478 3.059-1.413 6.874-2.805 11.442-.306.956-.528 1.663-.663 2.123l-10.146 33.835h-13.565l-10.15-33.835c-.135-.46-.338-1.167-.61-2.123-1.427-4.568-2.362-8.365-2.804-11.392a307.27 307.27 0 0 1-.714 8.112c-.271 2.68-.596 5.353-.97 8.015l-4.383 31.223h-18.921l11.526-72.21h20.142l11.27 37.24c.068.264.204.689.407 1.281 1.053 3.323 1.717 6.167 1.988 8.533.135-1.281.392-2.705.767-4.264.371-1.564.882-3.444 1.527-5.65l11.374-37.14h20.192l11.473 72.21z" style=""/>
  </g>
</svg>